<?xml version="1.0" standalone="no"?>
<!DOCTYPE svg PUBLIC "-//W3C//DTD SVG 20010904//EN"
 "http://www.w3.org/TR/2001/REC-SVG-20010904/DTD/svg10.dtd">
<svg version="1.0" xmlns="http://www.w3.org/2000/svg"
 width="100.000000pt" height="100.000000pt" viewBox="0 0 100.000000 100.000000"
 preserveAspectRatio="xMidYMid meet">

<g transform="translate(0.000000,100.000000) scale(0.100000,-0.100000)"
fill="#000000" stroke="none">
<path d="M0 500 l0 -500 500 0 500 0 0 500 0 500 -500 0 -500 0 0 -500z m566
279 c23 -22 23 -22 4 -46 -18 -23 -18 -24 7 -49 l25 -25 22 20 22 21 24 -25
23 -25 -23 -25 -24 -25 -22 21 -22 20 -27 -26 -26 -27 20 -22 21 -22 -23 -22
-23 -22 -24 25 -23 25 23 25 c19 20 20 25 7 25 -9 0 -22 9 -30 20 -14 20 -14
20 -33 -2 -10 -12 -13 -18 -7 -14 7 4 22 1 33 -7 16 -11 18 -16 8 -25 -10 -7
-26 1 -61 32 l-47 42 24 23 c22 21 26 22 46 8 20 -14 23 -13 46 10 l25 25 -20
22 -21 22 22 22 c27 27 26 27 54 1z m-74 -78 c-25 -26 -50 -6 -26 20 13 14 20
16 30 8 10 -8 9 -14 -4 -28z m128 24 c10 -12 10 -18 1 -29 -11 -13 -15 -12
-30 2 -12 12 -15 21 -8 30 12 16 22 15 37 -3z m6 -126 c10 -17 -23 -46 -38
-31 -8 8 -8 15 2 27 15 18 26 19 36 4z m-416 -100 l0 -50 43 3 42 3 3 48 c5
83 22 51 22 -43 0 -49 -4 -90 -9 -90 -5 0 -11 12 -13 28 -3 24 -7 27 -45 30
-40 3 -43 1 -43 -22 0 -14 -5 -28 -10 -31 -6 -4 -10 27 -10 84 0 54 4 91 10
91 6 0 10 -23 10 -51z m580 32 c0 -11 6 -22 13 -25 10 -5 10 -7 0 -12 -16 -7
-17 -86 -1 -102 17 -17 5 -24 -14 -9 -15 11 -23 72 -19 145 1 27 21 30 21 3z
m-367 -32 c16 -9 22 -9 25 0 10 29 22 -7 22 -65 0 -57 -12 -84 -22 -53 -3 9
-9 9 -25 0 -12 -6 -27 -11 -33 -11 -19 0 -60 48 -60 70 0 22 41 70 60 70 6 0
21 -5 33 -11z m97 -41 l22 -52 20 52 c11 29 24 52 29 52 15 0 11 -17 -22 -96
-31 -74 -58 -111 -46 -62 5 17 -2 45 -18 82 -27 61 -30 76 -16 76 5 0 19 -23
31 -52z m180 42 c13 -7 21 -7 25 0 13 21 25 -3 25 -50 0 -56 -9 -88 -20 -70
-5 8 -14 8 -34 -1 -23 -11 -30 -10 -54 8 -39 29 -41 74 -6 102 30 24 38 25 64
11z m90 -443 c85 -1 -46 -4 -292 -5 -247 -1 -448 1 -448 6 0 6 345 6 740 -1z"/>
<path d="M524 659 c-9 -16 10 -31 30 -23 13 5 14 9 5 20 -14 17 -25 18 -35 3z"/>
<path d="M367 473 c-15 -15 -7 -63 13 -73 42 -22 82 34 48 68 -13 13 -50 16
-61 5z"/>
<path d="M640 459 c-9 -16 -8 -26 5 -45 17 -27 27 -29 56 -14 21 12 25 50 7
68 -19 19 -56 14 -68 -9z"/>
</g>
</svg>
